<?xml version="1.0" encoding="UTF-8"?>
<svg version="1.1" xmlns="http://www.w3.org/2000/svg" width="600" height="600">
<path d="M0 0 C50.49 0 100.98 0 153 0 C153 0.66 153 1.32 153 2 C153.58007812 2.06058594 154.16015625 2.12117187 154.7578125 2.18359375 C159.20092863 2.66016561 163.59905423 3.21008666 168 4 C168 4.66 168 5.32 168 6 C169.31291016 6.39251953 169.31291016 6.39251953 170.65234375 6.79296875 C182.82452971 11.18177326 192.07830716 20.53426811 198.1875 31.75 C204.81472857 45.9472428 203.56724189 59.19502201 200 74 C199.65807572 75.66492543 199.32132597 77.33097678 199 79 C198.34 79 197.68 79 197 79 C196.814375 79.78375 196.62875 80.5675 196.4375 81.375 C194.40770721 86.49360789 191.27169666 90.60114163 188 95 C186.8553125 96.546875 186.8553125 96.546875 185.6875 98.125 C185.130625 98.74375 184.57375 99.3625 184 100 C183.34 100 182.68 100 182 100 C181.67 100.99 181.34 101.98 181 103 C177.19364136 106.25215282 173.0806226 109.10357818 169 112 C168.32453125 112.49113281 167.6490625 112.98226562 166.953125 113.48828125 C162.72856681 116.35761612 158.14929824 118.31876569 153.4375 120.25 C152.81190186 120.50869873 152.18630371 120.76739746 151.54174805 121.03393555 C148.35228015 122.28985925 145.50292728 123.06965984 142.09765625 123.546875 C141.07542969 123.69640625 140.05320312 123.8459375 139 124 C138.67 124.66 138.34 125.32 138 126 C131.61455452 127.34139075 124.81709382 127.1496001 118.31518555 127.15771484 C116.94978889 127.16533592 116.94978889 127.16533592 115.55680847 127.17311096 C113.60025142 127.18372872 111.64368287 127.19238181 109.68710899 127.19923019 C106.58901703 127.21112058 103.4910582 127.23059309 100.39302063 127.25234985 C91.59172977 127.31366534 82.79045933 127.36813601 73.98901367 127.40136719 C68.58924552 127.42229527 63.18973224 127.45756601 57.79010963 127.50212479 C55.73724166 127.51627999 53.68432874 127.52500614 51.63141441 127.52817917 C48.76661728 127.53308105 45.90250083 127.55621485 43.0378418 127.58349609 C41.76991791 127.57898689 41.76991791 127.57898689 40.47637939 127.5743866 C35.84326999 127.63999568 32.74427697 127.97016047 29 131 C26.69871705 134.72966548 26 136.56661697 26 141 C25.34 141 24.68 141 24 141 C23.89437744 141.92345215 23.78875488 142.8469043 23.67993164 143.79833984 C22.4409662 152.41138062 19.70530035 160.82063174 17.38256836 169.18847656 C16.752479 171.47965141 16.13494953 173.77431735 15.5300293 176.07226562 C14.65221988 179.4033176 13.73494631 182.72122763 12.80859375 186.0390625 C12.54678818 187.06311188 12.2849826 188.08716125 12.01524353 189.14224243 C10.5776676 194.12404803 9.44138869 197.24418316 4.97680664 200.11083984 C1.77117621 201.79642207 -1.54948983 202.9059358 -5 204 C-5.33 204.66 -5.66 205.32 -6 206 C-7.71447689 206.92340115 -9.47276655 207.76654652 -11.25 208.5625 C-12.20390625 208.99691406 -13.1578125 209.43132812 -14.140625 209.87890625 C-17 211 -17 211 -19.796875 211.52734375 C-20.88742188 211.76130859 -20.88742188 211.76130859 -22 212 C-22.33 212.66 -22.66 213.32 -23 214 C-24.71484375 214.98974609 -24.71484375 214.98974609 -26.9375 216.0234375 C-27.75089844 216.405 -28.56429687 216.7865625 -29.40234375 217.1796875 C-30.25957031 217.57414063 -31.11679688 217.96859375 -32 218.375 C-32.82628906 218.76171875 -33.65257813 219.1484375 -34.50390625 219.546875 C-39.36390246 221.81335211 -44.25094237 223.99755389 -49.1875 226.09228516 C-51.18260557 226.97219589 -51.18260557 226.97219589 -53 229 C-55.625 229.125 -55.625 229.125 -58 229 C-58.495 229.99 -58.495 229.99 -59 231 C-60.11596752 227.65737331 -59.86645723 225.58944997 -58.91113281 222.22363281 C-58.64586792 221.27053223 -58.38060303 220.31743164 -58.1072998 219.33544922 C-57.80892212 218.30178223 -57.51054443 217.26811523 -57.203125 216.203125 C-56.898302 215.11757324 -56.593479 214.03202148 -56.27941895 212.91357422 C-55.27855401 209.35645806 -54.26426547 205.80331596 -53.25 202.25 C-52.55917939 199.80335386 -51.86940693 197.35641153 -51.18066406 194.90917969 C-49.78929201 189.96710638 -48.3938915 185.02619687 -46.99609375 180.0859375 C-44.19208352 170.155795 -41.46867495 160.20377323 -38.75 150.25 C-33.61601007 131.45373315 -33.61601007 131.45373315 -31 123 C-31.66 122.67 -32.32 122.34 -33 122 C-32.01 122 -31.02 122 -30 122 C-29.9175 121.05125 -29.835 120.1025 -29.75 119.125 C-29.03592525 114.09587354 -27.02831533 109.62302815 -25 105 C-24.525625 103.906875 -24.05125 102.81375 -23.5625 101.6875 C-21.71432706 98.50864254 -19.72207063 96.48536884 -17 94 C-16.37222656 93.37996094 -15.74445313 92.75992188 -15.09765625 92.12109375 C-4.00287975 81.54795231 7.85863446 77.68295359 22.83520508 77.76049805 C24.01009995 77.75848389 25.18499481 77.75646973 26.39549255 77.75439453 C28.93977943 77.75085662 31.48407512 77.75160673 34.02836037 77.75617027 C38.06016822 77.76177524 42.09168606 77.7530801 46.12345886 77.7389679 C57.5843476 77.7013415 69.04515567 77.68301959 80.50610352 77.69458008 C86.84478309 77.70081602 93.18317733 77.68911887 99.52178687 77.65813476 C102.86909457 77.64260745 106.2153635 77.63926386 109.56275368 77.65271568 C113.30115016 77.66709222 117.03828396 77.65071802 120.77661133 77.62768555 C121.87045135 77.63945328 122.96429138 77.65122101 124.09127808 77.66334534 C131.39349888 77.57546869 136.87096255 76.05908357 143 72 C146.28412917 68.31779456 147.14822969 63.8823155 147 59 C145.81260495 54.9760501 144.93178001 52.73561579 141.625 50.125 C137.05800179 48.16771505 132.7912964 47.87148674 127.85600281 47.84178162 C126.62066299 47.8319928 125.38532318 47.82220398 124.11254883 47.81211853 C122.75170937 47.80621517 121.39086951 47.80040468 120.0300293 47.79467773 C118.59088361 47.78509311 117.15174071 47.77508269 115.71260071 47.76467896 C111.81221256 47.73768711 107.91181239 47.71664665 104.01138282 47.69667697 C99.93276268 47.67478206 95.85417938 47.64741054 91.77558899 47.62062073 C84.05509481 47.57074119 76.33458012 47.52578481 68.61404592 47.48259836 C59.82326276 47.43318545 51.03251657 47.37828237 42.24176919 47.32291877 C24.1612138 47.20917149 6.08062351 47.10231669 -12 47 C-11.76812988 46.11328613 -11.53625977 45.22657227 -11.29736328 44.31298828 C-10.42660412 40.97747157 -9.55842136 37.64130516 -8.69189453 34.3046875 C-8.31855299 32.86920376 -7.94422891 31.43397514 -7.56884766 29.99902344 C-4.72985961 19.17111707 -4.72985961 19.17111707 -2.48779297 8.20654297 C-1.87078279 5.41548289 -0.90392024 2.71176071 0 0 Z " fill="#0B0B0D" transform="translate(158,185)"/>
<path d="M0 0 C0.83496002 0.00141495 1.66992004 0.0028299 2.53018188 0.00428772 C5.17901292 0.00985451 7.8277573 0.02240078 10.4765625 0.03515625 C12.27994669 0.04017555 14.08333221 0.0447377 15.88671875 0.04882812 C20.29169971 0.05981305 24.69661644 0.07705462 29.1015625 0.09765625 C29.4315625 1.41765625 29.7615625 2.73765625 30.1015625 4.09765625 C29.4415625 4.09765625 28.7815625 4.09765625 28.1015625 4.09765625 C27.9984375 5.14953125 27.8953125 6.20140625 27.7890625 7.28515625 C27.17308958 12.40600578 25.88799227 17.34581011 24.625 22.33984375 C23.82284328 25.04534757 23.82284328 25.04534757 25.1015625 27.09765625 C24.1115625 27.09765625 23.1215625 27.09765625 22.1015625 27.09765625 C21.97523438 28.24492187 21.84890625 29.3921875 21.71875 30.57421875 C21.16973503 34.95285392 20.2642826 39.18691146 19.2265625 43.47265625 C19.05092773 44.21217529 18.87529297 44.95169434 18.69433594 45.71362305 C17.52139478 50.57834859 16.19783592 55.36683454 14.6171875 60.1171875 C13.93359206 62.4017336 13.93359206 62.4017336 14.1015625 66.09765625 C13.4415625 66.09765625 12.7815625 66.09765625 12.1015625 66.09765625 C11.97062195 67.1140921 11.8396814 68.13052795 11.70477295 69.17776489 C11.14532898 72.81324502 10.37923719 76.2594779 9.45019531 79.81591797 C9.28536683 80.45115733 9.12053835 81.08639669 8.95071507 81.74088573 C8.40572152 83.8373508 7.85524757 85.93233428 7.3046875 88.02734375 C6.91494184 89.52176314 6.52551939 91.01626686 6.13639832 92.510849 C5.09481271 96.50716834 4.04831371 100.50218478 3.00056076 104.49689102 C2.13484196 107.79939065 1.27157147 111.10252824 0.40826702 114.40565968 C-1.74846783 122.65714794 -3.9107335 130.90717494 -6.07657337 139.15627766 C-7.39900802 144.19331973 -8.71922666 149.23093588 -10.03759766 154.26904297 C-11.56529392 160.10537918 -13.09764932 165.94046516 -14.63513184 171.77423096 C-15.1832619 173.85570728 -15.73006754 175.93753285 -16.2755127 178.01971436 C-17.021779 180.86587344 -17.77367527 183.71048102 -18.52734375 186.5546875 C-18.74107132 187.37412338 -18.95479889 188.19355927 -19.17500305 189.03782654 C-21.30863806 197.03582084 -21.30863806 197.03582084 -22.8984375 199.09765625 C-25.65161133 200.15991211 -25.65161133 200.15991211 -28.8984375 201.09765625 C-30.90149526 202.05835582 -32.88433576 203.0620642 -34.84765625 204.1015625 C-35.94271484 204.67712891 -37.03777344 205.25269531 -38.16601562 205.84570312 C-39.29458984 206.44447266 -40.42316406 207.04324219 -41.5859375 207.66015625 C-43.83881434 208.850908 -46.09267518 210.03980046 -48.34765625 211.2265625 C-49.34112061 211.7532251 -50.33458496 212.2798877 -51.3581543 212.82250977 C-53.8984375 214.09765625 -53.8984375 214.09765625 -56.8984375 215.09765625 C-57.2284375 215.75765625 -57.5584375 216.41765625 -57.8984375 217.09765625 C-61.18438913 218.70263126 -64.53428693 220.12028757 -67.89453125 221.5625 C-71.12165922 222.90330625 -71.12165922 222.90330625 -72.8984375 226.09765625 C-75.2734375 226.72265625 -75.2734375 226.72265625 -77.8984375 227.09765625 C-80.09590881 227.39570632 -80.09590881 227.39570632 -81.8984375 228.09765625 C-82.2284375 229.08765625 -82.5584375 230.07765625 -82.8984375 231.09765625 C-82.8984375 230.43765625 -82.8984375 229.77765625 -82.8984375 229.09765625 C-83.5584375 228.76765625 -84.2184375 228.43765625 -84.8984375 228.09765625 C-84.59808594 226.89367187 -84.29773438 225.6896875 -83.98828125 224.44921875 C-83.60380091 222.87378713 -83.21970627 221.29826135 -82.8359375 219.72265625 C-82.53719727 218.5315625 -82.53719727 218.5315625 -82.23242188 217.31640625 C-80.96179059 213.14334628 -80.96179059 213.14334628 -81.8984375 209.09765625 C-81.43624313 208.70588699 -80.97404877 208.31411774 -80.49784851 207.91047668 C-78.53978368 205.69114725 -78.05800868 203.9497565 -77.30786133 201.0925293 C-77.03334641 200.06747787 -76.75883148 199.04242645 -76.47599792 197.98631287 C-76.1887233 196.87192337 -75.90144867 195.75753387 -75.60546875 194.609375 C-75.29801224 193.45031143 -74.99055573 192.29124786 -74.67378235 191.09706116 C-73.67656399 187.32888551 -72.69368322 183.55712959 -71.7109375 179.78515625 C-71.03401568 177.21686514 -70.35611856 174.64883088 -69.67724609 172.08105469 C-68.34537298 167.03825853 -67.01863334 161.99416147 -65.69677734 156.94873047 C-63.50140317 148.57386989 -61.26500505 140.21024075 -59.0234375 131.84765625 C-58.42118324 129.59263255 -57.81953879 127.33744582 -57.21875 125.08203125 C-56.98430176 124.20256836 -56.74985352 123.32310547 -56.50830078 122.41699219 C-55.36751049 118.07851832 -54.34146914 113.71953294 -53.3359375 109.34765625 C-52.93181641 107.59195313 -52.93181641 107.59195313 -52.51953125 105.80078125 C-52.21208984 104.46273437 -52.21208984 104.46273437 -51.8984375 103.09765625 C-53.07599609 104.18433594 -53.07599609 104.18433594 -54.27734375 105.29296875 C-63.83359863 114.0929404 -63.83359863 114.0929404 -67.8984375 117.53515625 C-69.59165965 118.98145017 -71.26133162 120.46055037 -72.8359375 122.03515625 C-76.03310828 125.23232703 -79.48196265 128.13835887 -82.8984375 131.09765625 C-84.33698588 132.34644959 -85.77452009 133.59641236 -87.2109375 134.84765625 C-87.84644531 135.399375 -88.48195313 135.95109375 -89.13671875 136.51953125 C-90.25571397 137.52191277 -91.35177275 138.5509915 -92.4140625 139.61328125 C-93.99322052 141.19243927 -95.6429338 142.64130898 -97.3359375 144.09765625 C-101.49938711 147.71368934 -105.55782209 151.43630795 -109.59741211 155.18945312 C-112.60052067 157.96447117 -115.6969974 160.55630689 -118.8984375 163.09765625 C-119.6203125 163.81953125 -120.3421875 164.54140625 -121.0859375 165.28515625 C-123.65681295 167.8560317 -126.27888339 170.33119472 -128.9609375 172.78515625 C-129.79753906 173.55214844 -130.63414062 174.31914062 -131.49609375 175.109375 C-133.60442878 176.85432221 -135.46191978 177.92009646 -137.8984375 179.09765625 C-138.59994902 180.41299035 -139.26369675 181.74883217 -139.8984375 183.09765625 C-146.71798141 191.18007866 -156.97349053 193.51908694 -167.0234375 194.97265625 C-172.19595868 195.38252322 -176.17514349 194.08408831 -180.8984375 192.09765625 C-182.0946875 191.66453125 -183.2909375 191.23140625 -184.5234375 190.78515625 C-192.22925742 186.93224629 -197.92020667 180.17094729 -203.8984375 174.09765625 C-205.56430016 172.43018596 -207.23109829 170.76365011 -208.8984375 169.09765625 C-223.8984375 154.09765625 -223.8984375 154.09765625 -238.8984375 139.09765625 C-238.4034375 138.10765625 -238.4034375 138.10765625 -237.8984375 137.09765625 C-237.33769028 137.09987686 -236.77694305 137.10209747 -236.19920349 137.10438538 C-230.34268839 137.1265749 -224.48618531 137.14161975 -218.62963867 137.15258789 C-216.4463655 137.15760468 -214.26309568 137.16441962 -212.07983398 137.1730957 C-208.93472467 137.18527772 -205.78965993 137.19091122 -202.64453125 137.1953125 C-201.6744664 137.20047379 -200.70440155 137.20563507 -199.7049408 137.21095276 C-181.78808404 137.21242303 -164.98159037 131.55107875 -149.6484375 122.47265625 C-149.01639404 122.10060059 -148.38435059 121.72854492 -147.7331543 121.34521484 C-144.37531361 119.28089711 -142.14098424 117.31585645 -139.8984375 114.09765625 C-139.2384375 114.09765625 -138.5784375 114.09765625 -137.8984375 114.09765625 C-136.6518431 112.58862092 -135.40762922 111.07738796 -134.1875 109.546875 C-132.61761163 107.7819399 -131.02402565 107.0940257 -128.8984375 106.09765625 C-127.20026605 104.45536613 -125.54576015 102.78993456 -123.8984375 101.09765625 C-121.29870066 98.4682551 -118.69195292 95.84583264 -116.0859375 93.22265625 C-115.41240234 92.54074219 -114.73886719 91.85882813 -114.04492188 91.15625 C-110.0650507 87.15733637 -105.97764175 83.36595344 -101.7043457 79.68310547 C-99.32367576 77.59305942 -97.10786896 75.36680207 -94.8984375 73.09765625 C-91.26034428 69.40918943 -87.50696541 65.97570798 -83.56640625 62.6171875 C-81.7194709 61.01865723 -81.7194709 61.01865723 -79.8359375 58.47265625 C-77.66565917 55.81231508 -75.36547322 54.25597655 -72.55078125 52.33984375 C-70.22870205 50.59416719 -68.68929544 48.37692999 -66.8984375 46.09765625 C-65.06796207 44.39697003 -63.17514835 42.78144178 -61.27734375 41.15625 C-53.65422917 34.55956464 -46.33756122 27.59260644 -38.9609375 20.72265625 C-38.33437256 20.13991943 -37.70780762 19.55718262 -37.06225586 18.95678711 C-34.39887336 16.47098731 -31.77460592 13.97256476 -29.2109375 11.3828125 C-27.16936735 9.36538253 -25.13746475 7.61685539 -22.8359375 5.91015625 C-22.18496094 5.42160156 -21.53398437 4.93304688 -20.86328125 4.4296875 C-14.31391245 -0.01034184 -7.67699359 -0.04951434 0 0 Z " fill="#101011" transform="translate(476.8984375,184.90234375)"/>
<path d="M0 0 C1.33363703 0.14403348 2.67218046 0.24590423 4.01171875 0.31640625 C5.14770508 0.37924805 5.14770508 0.37924805 6.30664062 0.44335938 C7.48516602 0.50233398 7.48516602 0.50233398 8.6875 0.5625 C9.88342773 0.62727539 9.88342773 0.62727539 11.10351562 0.69335938 C13.06881447 0.79927368 15.03438496 0.90012551 17 1 C14.05571622 2.96285585 11.09518677 4.4704839 7.9375 6.0625 C-13.39343491 17.51184368 -21.52161494 37.22014831 -28.20770264 59.29922485 C-29.14752623 62.41738813 -30.07789343 65.53830057 -31.00537109 68.66015625 C-49.58810653 131.05873769 -49.58810653 131.05873769 -69 144 C-67.26466877 135.17873291 -65.17827707 126.46720364 -62.75 117.8125 C-62.54511963 117.0803125 -62.34023926 116.348125 -62.12915039 115.59375 C-61.1179834 111.98378231 -60.10536599 108.37423289 -59.08935547 104.765625 C-58.11301856 101.28370133 -57.1494373 97.79842629 -56.1875 94.3125 C-55.87329102 93.20173096 -55.55908203 92.09096191 -55.23535156 90.9465332 C-53.71408028 85.39963366 -52.9603733 80.76568465 -53 75 C-52.24597825 71.32235521 -51.22266938 67.73218597 -50.1875 64.125 C-49.92646484 63.18269531 -49.66542969 62.24039063 -49.39648438 61.26953125 C-47.76721969 55.45245289 -45.96978289 49.71051459 -44 44 C-44.66 43.67 -45.32 43.34 -46 43 C-45.01 43 -44.02 43 -43 43 C-42.9175 42.05125 -42.835 41.1025 -42.75 40.125 C-42.03592525 35.09587354 -40.02831533 30.62302815 -38 26 C-37.525625 24.906875 -37.05125 23.81375 -36.5625 22.6875 C-34.71432706 19.50864254 -32.72207063 17.48536884 -30 15 C-29.37222656 14.37996094 -28.74445313 13.75992187 -28.09765625 13.12109375 C-21.85588505 7.17278738 -9.06976562 -3.02325521 0 0 Z " fill="#2E2E2F" transform="translate(171,264)"/>
<path d="M0 0 C0.66 0 1.32 0 2 0 C3.65625 1.71484375 3.65625 1.71484375 5.5 3.9375 C7.88926999 6.92045179 7.88926999 6.92045179 11 9 C11 9.66 11 10.32 11 11 C11.66 11 12.32 11 13 11 C14.41674805 12.42919922 14.41674805 12.42919922 16.07421875 14.4296875 C20.12981914 19.19320882 24.41807356 23.67428287 28.8125 28.125 C29.9272168 29.28322266 29.9272168 29.28322266 31.06445312 30.46484375 C36.11461964 35.57155821 41.37694041 40.06167606 48 43 C49.32 43 50.64 43 52 43 C52 43.66 52 44.32 52 45 C65.73538187 45.57968786 77.03306167 44.93385945 87.87963867 35.33691406 C89.93819155 33.40958669 91.97387445 31.46138093 94 29.5 C98.44879627 25.19336451 102.70760522 21.2415918 108 18 C106.46294916 21.78218127 104.15470258 23.9369256 101.125 26.625 C100.26132812 27.40101563 99.39765625 28.17703125 98.5078125 28.9765625 C96.35734412 30.71167561 94.45862438 31.80927609 92 33 C91.29848848 34.3153341 90.63474075 35.65117592 90 37 C83.18045609 45.08242241 72.92494697 47.42143069 62.875 48.875 C57.70247882 49.28486697 53.72329401 47.98643206 49 46 C47.80375 45.566875 46.6075 45.13375 45.375 44.6875 C37.66918008 40.83459004 31.97823083 34.07329104 26 28 C22.65555271 24.64605244 19.29222268 21.31221596 15.91796875 17.98828125 C14.49522513 16.579322 13.07249573 15.17034802 11.65063477 13.76049805 C10.66800215 12.78803116 9.68359867 11.81735068 8.69750977 10.84838867 C7.2663675 9.44137874 5.84204942 8.02743802 4.41796875 6.61328125 C3.57000732 5.77579346 2.7220459 4.93830566 1.84838867 4.07543945 C0 2 0 2 0 0 Z " fill="#060606" transform="translate(247,331)"/>
<path d="M0 0 C0.99 0.495 0.99 0.495 2 1 C0.4759304 2.42246496 -1.04814839 3.84492006 -2.57226562 5.26733398 C-3.91356261 6.51928795 -5.25470523 7.77140731 -6.59570312 9.02368164 C-10.09020618 12.28654767 -13.5869994 15.54687 -17.08984375 18.80078125 C-18.07392212 19.71609619 -18.07392212 19.71609619 -19.07788086 20.64990234 C-20.32121419 21.80621971 -21.56545724 22.96156001 -22.81079102 24.11572266 C-25.74592915 26.84754878 -28.62401634 29.61541083 -31.4375 32.47265625 C-33.82563094 34.88304717 -36.28226511 37.14476013 -38.859375 39.3515625 C-42.724811 42.68684968 -46.28484224 46.2620043 -49.84887695 49.91479492 C-64.61529001 65.04455032 -80.03272107 76.59833626 -100 84 C-101.53140625 84.59167969 -101.53140625 84.59167969 -103.09375 85.1953125 C-105.9905629 85.99738704 -107.24658604 86.05900537 -110 85 C-108.60468879 84.43620608 -107.20870058 83.87408783 -105.8125 83.3125 C-104.8946875 82.94125 -103.976875 82.57 -103.03125 82.1875 C-101.0242428 81.40124976 -99.0029286 80.65051106 -96.96875 79.9375 C-90.55771798 77.65237968 -84.71346843 74.90406852 -78.875 71.4375 C-77.91557495 70.87349487 -77.91557495 70.87349487 -76.93676758 70.2980957 C-73.5406158 68.21793565 -71.26041417 66.25765572 -69 63 C-68.34 63 -67.68 63 -67 63 C-65.7534056 61.49096467 -64.50919172 59.97973171 -63.2890625 58.44921875 C-61.71917413 56.68428365 -60.12558815 55.99636945 -58 55 C-56.30182855 53.35770988 -54.64732265 51.69227831 -53 50 C-50.40026316 47.37059885 -47.79351542 44.74817639 -45.1875 42.125 C-44.51396484 41.44308594 -43.84042969 40.76117188 -43.14648438 40.05859375 C-39.1666132 36.05968012 -35.07920425 32.26829719 -30.8059082 28.58544922 C-28.42523826 26.49540317 -26.20943146 24.26914582 -24 22 C-20.36190678 18.31153318 -16.60852791 14.87805173 -12.66796875 11.51953125 C-10.8210334 9.92100098 -10.8210334 9.92100098 -8.9375 7.375 C-6.34351422 4.19527549 -3.40032001 2.28867693 0 0 Z " fill="#070708" transform="translate(406,236)"/>
<path d="M0 0 C1.12735282 0.00092179 2.25470564 0.00184359 3.41622066 0.00279331 C4.7049609 0.00141865 5.99370113 0.00004398 7.3214941 -0.00137234 C8.76297688 0.00216728 10.20445942 0.0058021 11.64594173 0.00952244 C13.15345921 0.0098043 14.66097683 0.00964659 16.16849422 0.00907993 C20.2736879 0.00879192 24.37885262 0.01468922 28.48403955 0.02165389 C32.76952707 0.02788684 37.05501519 0.02849118 41.34050655 0.0296793 C49.46136099 0.03279279 57.58220203 0.04100641 65.70305055 0.05102879 C74.94594321 0.06218938 84.18883649 0.06770024 93.4317342 0.07272422 C112.45032856 0.08318901 131.46891044 0.1007888 150.48749447 0.12304783 C150.48749447 0.78304783 150.48749447 1.44304783 150.48749447 2.12304783 C100.98749447 2.12304783 51.48749447 2.12304783 0.48749447 2.12304783 C0.15749447 3.11304783 -0.17250553 4.10304783 -0.51250553 5.12304783 C-1.17250553 5.12304783 -1.83250553 5.12304783 -2.51250553 5.12304783 C-3.07500553 3.18554783 -3.07500553 3.18554783 -3.51250553 1.12304783 C-2.51250553 0.12304783 -2.51250553 0.12304783 0 0 Z " fill="#101011" transform="translate(160.51250553131104,184.87695217132568)"/>
<path d="M0 0 C0 0.33 0 0.66 0 1 C-11.94387993 3.35024293 -23.77381475 3.3898786 -35.90063477 3.53173828 C-38.51076968 3.56531371 -41.12052576 3.61037811 -43.73046875 3.65625 C-44.53244186 3.6615271 -45.33441498 3.6668042 -46.16069031 3.67224121 C-50.54826251 3.58190284 -50.54826251 3.58190284 -54 6 C-54.99 4.68 -55.98 3.36 -57 2 C-56.67 1.34 -56.34 0.68 -56 0 C-55.42814972 0.00222061 -54.85629944 0.00444122 -54.26712036 0.00672913 C-48.33026757 0.02880483 -42.39342638 0.0439162 -36.45654297 0.05493164 C-34.23909024 0.05996909 -32.02164084 0.06679922 -29.80419922 0.07543945 C-26.62206195 0.08753072 -23.43996849 0.0932341 -20.2578125 0.09765625 C-18.76400558 0.10539818 -18.76400558 0.10539818 -17.24002075 0.11329651 C-15.85881546 0.11340981 -15.85881546 0.11340981 -14.44970703 0.11352539 C-13.23059128 0.11685631 -13.23059128 0.11685631 -11.98684692 0.12025452 C-2.94259843 -0.42715138 -2.94259843 -0.42715138 0 0 Z " fill="#050505" transform="translate(295,322)"/>
<path d="M0 0 C0.99 0.33 1.98 0.66 3 1 C1.40358734 7.36146258 -0.48691058 13.38022454 -3.015625 19.4296875 C-4.70777083 23.84806827 -5.84956598 28.41569474 -7 33 C-7.33 33 -7.66 33 -8 33 C-7.66156128 26.11841267 -6.30911053 19.76413703 -4.5625 13.125 C-4.34505127 12.29250732 -4.12760254 11.46001465 -3.90356445 10.60229492 C-2.88714161 6.83645021 -1.83461445 3.45928097 0 0 Z " fill="#040404" transform="translate(411,346)"/>
<path d="M0 0 C1.59752849 0.00031727 3.19507824 0.01165096 4.79248047 0.03173828 C6.05341019 0.03598312 6.05341019 0.03598312 7.33981323 0.04031372 C10.02990843 0.05152648 12.71967307 0.07663275 15.40966797 0.10205078 C17.23127775 0.11207918 19.05289274 0.12120527 20.87451172 0.12939453 C25.34469155 0.15146937 29.81462368 0.18600644 34.28466797 0.22705078 C34.77966797 2.20705078 34.77966797 2.20705078 35.28466797 4.22705078 C34.29466797 4.55705078 33.30466797 4.88705078 32.28466797 5.22705078 C32.28466797 4.23705078 32.28466797 3.24705078 32.28466797 2.22705078 C19.74466797 2.22705078 7.20466797 2.22705078 -5.71533203 2.22705078 C-3.71533203 0.22705078 -3.71533203 0.22705078 0 0 Z " fill="#070708" transform="translate(471.71533203125,184.77294921875)"/>
<path d="M0 0 C0.99261337 0.0199855 1.98522675 0.03997101 3.00791931 0.06056213 C4.68954918 0.09070656 4.68954918 0.09070656 6.40515137 0.12145996 C7.62492172 0.14849503 8.84469208 0.17553009 10.10142517 0.2033844 C11.34298874 0.22699539 12.58455231 0.25060638 13.86373901 0.27493286 C17.16988976 0.33871725 20.47589119 0.40690456 23.78190613 0.47718811 C27.15331472 0.54779035 30.52483305 0.61265576 33.89634705 0.67799377 C40.51560222 0.80744649 47.13472019 0.94270096 53.75376892 1.08229065 C53.75376892 1.41229065 53.75376892 1.74229065 53.75376892 2.08229065 C36.26376892 2.08229065 18.77376892 2.08229065 0.75376892 2.08229065 C0.42376892 3.07229065 0.09376892 4.06229065 -0.24623108 5.08229065 C-0.90623108 5.08229065 -1.56623108 5.08229065 -2.24623108 5.08229065 C-2.80873108 3.14479065 -2.80873108 3.14479065 -3.24623108 1.08229065 C-2.24623108 0.08229065 -2.24623108 0.08229065 0 0 Z " fill="#1F1F20" transform="translate(160.24623107910156,184.91770935058594)"/>
<path d="M0 0 C0.66 0.33 1.32 0.66 2 1 C-0.28356246 3.34138543 -2.57813374 5.67166982 -4.875 8 C-5.52597656 8.66773438 -6.17695313 9.33546875 -6.84765625 10.0234375 C-7.47285156 10.65507812 -8.09804688 11.28671875 -8.7421875 11.9375 C-9.3182373 12.52402344 -9.89428711 13.11054688 -10.48779297 13.71484375 C-12 15 -12 15 -14 15 C-14.33 15.99 -14.66 16.98 -15 18 C-16.77734375 19.7890625 -16.77734375 19.7890625 -18.9375 21.625 C-19.64777344 22.23601562 -20.35804688 22.84703125 -21.08984375 23.4765625 C-23 25 -23 25 -25 26 C-24.43446569 22.50876819 -23.41269168 21.14360755 -20.6875 18.9375 C-16.95237528 15.81701606 -13.33154257 12.60642137 -9.75 9.3125 C-9.24299561 8.84900146 -8.73599121 8.38550293 -8.21362305 7.90795898 C-5.40882622 5.33461923 -2.66921449 2.7137014 0 0 Z " fill="#0A0A0B" transform="translate(434,209)"/>
<path d="M0 0 C0.66 0 1.32 0 2 0 C0.515 6.435 0.515 6.435 -1 13 C-1.33 13 -1.66 13 -2 13 C-2.16682272 8.07872966 -2.24828052 4.49656104 0 0 Z " fill="#1F1F1F" transform="translate(126,311)"/>
<path d="M0 0 C0 0.33 0 0.66 0 1 C-4.40914783 2.10228696 -8.48382401 2.07654536 -13 2 C-7.89905865 -1.40062757 -5.96067238 -0.86525889 0 0 Z " fill="#040405" transform="translate(295,322)"/>
<path d="M0 0 C0.99 0.66 1.98 1.32 3 2 C2.67 2.66 2.34 3.32 2 4 C0.35 4 -1.3 4 -3 4 C-3.33 4.66 -3.66 5.32 -4 6 C-4.33 4.68 -4.66 3.36 -5 2 C-3.35 2 -1.7 2 0 2 C0 1.34 0 0.68 0 0 Z " fill="#040405" transform="translate(103,410)"/>
<path d="M0 0 C3 1 3 1 3 1 Z " fill="#0E0E0F" transform="translate(429,210)"/>
<path d="M0 0 C0.99 0.495 0.99 0.495 2 1 C1.01 1.495 1.01 1.495 0 2 C0 1.34 0 0.68 0 0 Z " fill="#0D0D0E" transform="translate(442,199)"/>
<path d="M0 0 C2 1 2 1 2 1 Z " fill="#171718" transform="translate(436,398)"/>
<path d="" fill="#0E0E0F" transform="translate(0,0)"/>
<path d="M0 0 C2 1 2 1 2 1 Z " fill="#101012" transform="translate(142,398)"/>
<path d="M0 0 C2 1 2 1 2 1 Z " fill="#0E0E0F" transform="translate(166,390)"/>
<path d="" fill="#121314" transform="translate(0,0)"/>
<path d="" fill="#070709" transform="translate(0,0)"/>
<path d="" fill="#040405" transform="translate(0,0)"/>
<path d="" fill="#101012" transform="translate(0,0)"/>
<path d="M0 0 C2 1 2 1 2 1 Z " fill="#131315" transform="translate(370,341)"/>
<path d="" fill="#0A0A0B" transform="translate(0,0)"/>
<path d="" fill="#08090B" transform="translate(0,0)"/>
<path d="M0 0 C2 1 2 1 2 1 Z " fill="#101012" transform="translate(417,303)"/>
<path d="" fill="#09090A" transform="translate(0,0)"/>
<path d="" fill="#1A1B1C" transform="translate(0,0)"/>
<path d="M0 0 C2 1 2 1 2 1 Z " fill="#19191A" transform="translate(146,271)"/>
<path d="M0 0 C2 1 2 1 2 1 Z " fill="#19191A" transform="translate(154,266)"/>
<path d="" fill="#0C0C0E" transform="translate(0,0)"/>
<path d="" fill="#161618" transform="translate(0,0)"/>
<path d="" fill="#0D0D0F" transform="translate(0,0)"/>
<path d="" fill="#050505" transform="translate(0,0)"/>
<path d="" fill="#111113" transform="translate(0,0)"/>
<path d="" fill="#050506" transform="translate(0,0)"/>
<path d="" fill="#0D0D0F" transform="translate(0,0)"/>
<path d="" fill="#0D0E0F" transform="translate(0,0)"/>
<path d="" fill="#050405" transform="translate(0,0)"/>
<path d="" fill="#08090A" transform="translate(0,0)"/>
<path d="" fill="#101112" transform="translate(0,0)"/>
<path d="" fill="#161618" transform="translate(0,0)"/>
<path d="" fill="#0E0E10" transform="translate(0,0)"/>
<path d="" fill="#171718" transform="translate(0,0)"/>
<path d="" fill="#19191B" transform="translate(0,0)"/>
<path d="" fill="#181819" transform="translate(0,0)"/>
<path d="" fill="#070708" transform="translate(0,0)"/>
<path d="" fill="#040405" transform="translate(0,0)"/>
<path d="" fill="#0F0F11" transform="translate(0,0)"/>
<path d="" fill="#050506" transform="translate(0,0)"/>
<path d="" fill="#050505" transform="translate(0,0)"/>
<path d="" fill="#151516" transform="translate(0,0)"/>
<path d="" fill="#101011" transform="translate(0,0)"/>
<path d="" fill="#0F1011" transform="translate(0,0)"/>
<path d="" fill="#0B0B0B" transform="translate(0,0)"/>
<path d="" fill="#141416" transform="translate(0,0)"/>
<path d="" fill="#131315" transform="translate(0,0)"/>
<path d="" fill="#070708" transform="translate(0,0)"/>
<path d="" fill="#0F0F11" transform="translate(0,0)"/>
<path d="" fill="#040404" transform="translate(0,0)"/>
<path d="" fill="#121214" transform="translate(0,0)"/>
<path d="" fill="#0C0C0E" transform="translate(0,0)"/>
<path d="" fill="#111113" transform="translate(0,0)"/>
<path d="" fill="#0C0C0E" transform="translate(0,0)"/>
<path d="" fill="#0D0E0F" transform="translate(0,0)"/>
<path d="" fill="#151517" transform="translate(0,0)"/>
<path d="" fill="#050505" transform="translate(0,0)"/>
<path d="" fill="#0C0C0E" transform="translate(0,0)"/>
<path d="" fill="#0E0E10" transform="translate(0,0)"/>
<path d="" fill="#101011" transform="translate(0,0)"/>
<path d="" fill="#060606" transform="translate(0,0)"/>
<path d="" fill="#0F0F10" transform="translate(0,0)"/>
<path d="" fill="#080809" transform="translate(0,0)"/>
<path d="" fill="#080808" transform="translate(0,0)"/>
<path d="" fill="#060607" transform="translate(0,0)"/>
<path d="" fill="#111213" transform="translate(0,0)"/>
<path d="" fill="#030405" transform="translate(0,0)"/>
<path d="" fill="#141415" transform="translate(0,0)"/>
<path d="" fill="#070708" transform="translate(0,0)"/>
<path d="" fill="#0A0A0C" transform="translate(0,0)"/>
<path d="" fill="#111112" transform="translate(0,0)"/>
<path d="" fill="#0C0C0E" transform="translate(0,0)"/>
<path d="" fill="#111113" transform="translate(0,0)"/>
<path d="" fill="#08080A" transform="translate(0,0)"/>
<path d="" fill="#141415" transform="translate(0,0)"/>
<path d="" fill="#111113" transform="translate(0,0)"/>
<path d="" fill="#050505" transform="translate(0,0)"/>
<path d="" fill="#040505" transform="translate(0,0)"/>
<path d="" fill="#121213" transform="translate(0,0)"/>
<path d="" fill="#080809" transform="translate(0,0)"/>
<path d="" fill="#101012" transform="translate(0,0)"/>
<path d="" fill="#121213" transform="translate(0,0)"/>
<path d="" fill="#101012" transform="translate(0,0)"/>
<path d="" fill="#121213" transform="translate(0,0)"/>
<path d="" fill="#070708" transform="translate(0,0)"/>
<path d="" fill="#09090A" transform="translate(0,0)"/>
<path d="" fill="#080809" transform="translate(0,0)"/>
<path d="" fill="#0F1011" transform="translate(0,0)"/>
<path d="" fill="#111112" transform="translate(0,0)"/>
<path d="" fill="#0B0B0C" transform="translate(0,0)"/>
<path d="" fill="#111213" transform="translate(0,0)"/>
<path d="" fill="#101112" transform="translate(0,0)"/>
<path d="" fill="#111113" transform="translate(0,0)"/>
<path d="" fill="#050506" transform="translate(0,0)"/>
<path d="" fill="#0F0F11" transform="translate(0,0)"/>
<path d="" fill="#121213" transform="translate(0,0)"/>
<path d="" fill="#050505" transform="translate(0,0)"/>
<path d="" fill="#060707" transform="translate(0,0)"/>
<path d="" fill="#0A0A0B" transform="translate(0,0)"/>
<path d="" fill="#101011" transform="translate(0,0)"/>
<path d="" fill="#141416" transform="translate(0,0)"/>
<path d="" fill="#101112" transform="translate(0,0)"/>
<path d="" fill="#060607" transform="translate(0,0)"/>
<path d="" fill="#0B0B0C" transform="translate(0,0)"/>
<path d="" fill="#131314" transform="translate(0,0)"/>
<path d="" fill="#18181A" transform="translate(0,0)"/>
<path d="" fill="#101012" transform="translate(0,0)"/>
<path d="" fill="#0C0C0D" transform="translate(0,0)"/>
<path d="" fill="#050506" transform="translate(0,0)"/>
<path d="" fill="#030304" transform="translate(0,0)"/>
<path d="" fill="#040405" transform="translate(0,0)"/>
<path d="" fill="#111112" transform="translate(0,0)"/>
<path d="" fill="#070708" transform="translate(0,0)"/>
<path d="" fill="#08090B" transform="translate(0,0)"/>
<path d="" fill="#08090A" transform="translate(0,0)"/>
<path d="" fill="#060606" transform="translate(0,0)"/>
<path d="" fill="#0F0F10" transform="translate(0,0)"/>
<path d="" fill="#040405" transform="translate(0,0)"/>
<path d="" fill="#0F0F10" transform="translate(0,0)"/>
<path d="" fill="#141517" transform="translate(0,0)"/>
<path d="" fill="#0F0F10" transform="translate(0,0)"/>
<path d="" fill="#040405" transform="translate(0,0)"/>
<path d="" fill="#08080B" transform="translate(0,0)"/>
<path d="" fill="#0A0A0C" transform="translate(0,0)"/>
<path d="" fill="#0A0B0C" transform="translate(0,0)"/>
<path d="" fill="#0E0E10" transform="translate(0,0)"/>
<path d="" fill="#171718" transform="translate(0,0)"/>
<path d="" fill="#161617" transform="translate(0,0)"/>
<path d="" fill="#050505" transform="translate(0,0)"/>
<path d="" fill="#101012" transform="translate(0,0)"/>
<path d="" fill="#161618" transform="translate(0,0)"/>
<path d="" fill="#0C0C0E" transform="translate(0,0)"/>
<path d="" fill="#0C0C0E" transform="translate(0,0)"/>
<path d="" fill="#101012" transform="translate(0,0)"/>
<path d="" fill="#101012" transform="translate(0,0)"/>
<path d="" fill="#0C0C0E" transform="translate(0,0)"/>
<path d="" fill="#080809" transform="translate(0,0)"/>
<path d="" fill="#0A0A0C" transform="translate(0,0)"/>
<path d="" fill="#101012" transform="translate(0,0)"/>
<path d="" fill="#0B0B0C" transform="translate(0,0)"/>
<path d="" fill="#141415" transform="translate(0,0)"/>
<path d="" fill="#0C0D0F" transform="translate(0,0)"/>
<path d="" fill="#0C0C0E" transform="translate(0,0)"/>
<path d="" fill="#070707" transform="translate(0,0)"/>
<path d="" fill="#040406" transform="translate(0,0)"/>
<path d="" fill="#0C0D0F" transform="translate(0,0)"/>
<path d="" fill="#0A0A0A" transform="translate(0,0)"/>
<path d="" fill="#111113" transform="translate(0,0)"/>
<path d="" fill="#060607" transform="translate(0,0)"/>
<path d="" fill="#171718" transform="translate(0,0)"/>
<path d="" fill="#0D0D0F" transform="translate(0,0)"/>
<path d="" fill="#030304" transform="translate(0,0)"/>
<path d="" fill="#181819" transform="translate(0,0)"/>
<path d="" fill="#050506" transform="translate(0,0)"/>
<path d="" fill="#0B0B0C" transform="translate(0,0)"/>
<path d="" fill="#0B0C0D" transform="translate(0,0)"/>
<path d="" fill="#0D0D0F" transform="translate(0,0)"/>
<path d="" fill="#121213" transform="translate(0,0)"/>
<path d="" fill="#232323" transform="translate(0,0)"/>
<path d="" fill="#050506" transform="translate(0,0)"/>
<path d="" fill="#191A1B" transform="translate(0,0)"/>
<path d="" fill="#0B0B0C" transform="translate(0,0)"/>
<path d="" fill="#080809" transform="translate(0,0)"/>
<path d="" fill="#0A0A0B" transform="translate(0,0)"/>
<path d="" fill="#030304" transform="translate(0,0)"/>
<path d="" fill="#050506" transform="translate(0,0)"/>
<path d="" fill="#1A1B1C" transform="translate(0,0)"/>
<path d="" fill="#0C0D0E" transform="translate(0,0)"/>
<path d="" fill="#050506" transform="translate(0,0)"/>
<path d="" fill="#1A1A1B" transform="translate(0,0)"/>
<path d="" fill="#050506" transform="translate(0,0)"/>
<path d="" fill="#070708" transform="translate(0,0)"/>
<path d="" fill="#050606" transform="translate(0,0)"/>
<path d="" fill="#1A1A1B" transform="translate(0,0)"/>
<path d="" fill="#040405" transform="translate(0,0)"/>
<path d="" fill="#1D1E1F" transform="translate(0,0)"/>
<path d="" fill="#1A1A1C" transform="translate(0,0)"/>
<path d="" fill="#1A1A1B" transform="translate(0,0)"/>
<path d="" fill="#060606" transform="translate(0,0)"/>
<path d="" fill="#0B0B0C" transform="translate(0,0)"/>
<path d="" fill="#19191B" transform="translate(0,0)"/>
<path d="" fill="#090A0C" transform="translate(0,0)"/>
<path d="" fill="#0D0E0F" transform="translate(0,0)"/>
<path d="" fill="#19191A" transform="translate(0,0)"/>
<path d="" fill="#0B0B0B" transform="translate(0,0)"/>
<path d="" fill="#050505" transform="translate(0,0)"/>
<path d="" fill="#050506" transform="translate(0,0)"/>
<path d="" fill="#181819" transform="translate(0,0)"/>
<path d="" fill="#0A0A0C" transform="translate(0,0)"/>
<path d="" fill="#0A0A0C" transform="translate(0,0)"/>
<path d="" fill="#151517" transform="translate(0,0)"/>
<path d="" fill="#0F0F10" transform="translate(0,0)"/>
<path d="" fill="#111113" transform="translate(0,0)"/>
<path d="" fill="#010101" transform="translate(0,0)"/>
<path d="" fill="#0F0F11" transform="translate(0,0)"/>
<path d="" fill="#0D0D0F" transform="translate(0,0)"/>
<path d="" fill="#0C0C0E" transform="translate(0,0)"/>
<path d="" fill="#0A0A0C" transform="translate(0,0)"/>
<path d="" fill="#0C0C0D" transform="translate(0,0)"/>
<path d="" fill="#0B0B0C" transform="translate(0,0)"/>
<path d="" fill="#050607" transform="translate(0,0)"/>
<path d="" fill="#0A0A0C" transform="translate(0,0)"/>
<path d="" fill="#111113" transform="translate(0,0)"/>
<path d="" fill="#0C0C0E" transform="translate(0,0)"/>
<path d="" fill="#0C0C0D" transform="translate(0,0)"/>
<path d="" fill="#131315" transform="translate(0,0)"/>
<path d="" fill="#121314" transform="translate(0,0)"/>
<path d="" fill="#232323" transform="translate(0,0)"/>
<path d="" fill="#08080A" transform="translate(0,0)"/>
<path d="" fill="#0A0A0A" transform="translate(0,0)"/>
<path d="" fill="#242424" transform="translate(0,0)"/>
<path d="" fill="#161618" transform="translate(0,0)"/>
<path d="" fill="#0F0F10" transform="translate(0,0)"/>
<path d="" fill="#131315" transform="translate(0,0)"/>
<path d="" fill="#161618" transform="translate(0,0)"/>
<path d="" fill="#19191A" transform="translate(0,0)"/>
<path d="" fill="#151517" transform="translate(0,0)"/>
<path d="" fill="#171719" transform="translate(0,0)"/>
<path d="" fill="#060606" transform="translate(0,0)"/>
<path d="" fill="#19191B" transform="translate(0,0)"/>
<path d="" fill="#040405" transform="translate(0,0)"/>
<path d="" fill="#171719" transform="translate(0,0)"/>
<path d="" fill="#090A0C" transform="translate(0,0)"/>
<path d="" fill="#2A2A2A" transform="translate(0,0)"/>
<path d="" fill="#0F0F10" transform="translate(0,0)"/>
<path d="" fill="#0B0B0D" transform="translate(0,0)"/>
<path d="" fill="#171719" transform="translate(0,0)"/>
<path d="" fill="#0C0C0E" transform="translate(0,0)"/>
<path d="" fill="#121214" transform="translate(0,0)"/>
<path d="" fill="#121214" transform="translate(0,0)"/>
</svg>
